# xmcd CD database file
#
# Track frame offsets:
#	150
#	8945
#	26037
#	46257
#	61370
#	68245
#	86387
#	99820
#	114040
#	120302
#	134432
#	147937
#
# Disc length: 2129 seconds
#
# Revision: 4
# Processed by: cddbd v1.5.2PL0 Copyright (c) Steve Scherf et al.
# Submitted via: CDex 1.60beta1-cs1
#
DISCID=93084f0c
DTITLE=dustbox - Sound A Bell Named Hope
DYEAR=2002
DGENRE=Punk
TTITLE0=Thorny Road
TTITLE1=Butterfly
TTITLE2=虹
TTITLE3=Life Has No Rehearsal
TTITLE4=Honesty
TTITLE5=Somewhere
TTITLE6=Promise You
TTITLE7=In The Sea Of Emotion
TTITLE8=September
TTITLE9=Spiral
TTITLE10=The Sun On The Horizon
TTITLE11=Change the world
EXTD=YEAR: 2002
EXTT0=
EXTT1=
EXTT2=
EXTT3=
EXTT4=
EXTT5=
EXTT6=
EXTT7=
EXTT8=
EXTT9=
EXTT10=
EXTT11=
PLAYORDER=
